<svg width="50" height="50" viewBox="0 0 50 50" fill="none" xmlns="http://www.w3.org/2000/svg">
<path d="M25 35.4166C24.4681 35.4139 23.9435 35.2929 23.4643 35.0623C22.985 34.8317 22.5631 34.4972 22.2292 34.0833L13.4583 23.4583C12.9458 22.8186 12.6233 22.0479 12.5275 21.2339C12.4318 20.4198 12.5666 19.5953 12.9167 18.8541C13.2006 18.21 13.6639 17.6612 14.2513 17.2733C14.8387 16.8854 15.5253 16.6748 16.2292 16.6666H33.7708C34.4747 16.6748 35.1613 16.8854 35.7487 17.2733C36.3361 17.6612 36.7994 18.21 37.0833 18.8541C37.4334 19.5953 37.5682 20.4198 37.4725 21.2339C37.3767 22.0479 37.0542 22.8186 36.5417 23.4583L27.7708 34.0833C27.4369 34.4972 27.015 34.8317 26.5357 35.0623C26.0564 35.2929 25.5318 35.4139 25 35.4166Z" fill="white"/>
</svg>
